<svg width="55" height="50" viewBox="0 0 55 50" fill="none" xmlns="http://www.w3.org/2000/svg">
<g clip-path="url(#clip0_117125_81)">
<path fill-rule="evenodd" clip-rule="evenodd" d="M26.7167 9.52923C27.3433 9.52923 27.961 9.56565 28.5697 9.6385V4.26607C28.2788 4.1568 28.0237 3.98379 27.8088 3.76525C27.415 3.3646 27.1733 2.81825 27.1733 2.20816C27.1733 1.60262 27.415 1.05172 27.8088 0.651065C28.2027 0.25041 28.7398 0.0045529 29.3396 0.0045529C29.9349 0.0045529 30.4765 0.25041 30.8704 0.651065C31.2642 1.05172 31.5059 1.59807 31.5059 2.20816C31.5059 2.8137 31.2642 3.3646 30.8704 3.76525C30.66 3.97924 30.3959 4.1568 30.1095 4.26607V9.89801C31.5507 10.2167 32.9159 10.7357 34.1781 11.4232V9.34711C34.1781 8.91459 34.5227 8.56401 34.9479 8.56401H40.3369C40.4443 8.28629 40.6099 8.03588 40.8158 7.82644C41.2097 7.42579 41.7468 7.17993 42.3466 7.17993C42.9419 7.17993 43.4835 7.42579 43.8774 7.82644C44.2712 8.2271 44.5129 8.77345 44.5129 9.38354C44.5129 9.98907 44.2712 10.54 43.8774 10.9406C43.4835 11.3413 42.9464 11.5871 42.3466 11.5871C41.7468 11.5871 41.2052 11.3413 40.8203 10.9406C40.5965 10.713 40.422 10.4353 40.3145 10.1257H35.7267V12.3839C38.9315 14.6421 41.2769 18.0705 42.1631 22.0634H51.9385V14.0366C51.7013 13.9273 51.4819 13.7725 51.3029 13.5859C50.909 13.1852 50.6673 12.6389 50.6673 12.0288C50.6673 11.4232 50.909 10.8723 51.3029 10.4717C51.6968 10.071 52.2339 9.82517 52.8337 9.82517C53.429 9.82517 53.9705 10.071 54.3644 10.4717C54.7583 10.8723 55 11.4187 55 12.0288C55 12.6343 54.7583 13.1852 54.3644 13.5859C54.1182 13.8363 53.8139 14.0229 53.4782 14.1322V22.851C53.4782 23.2836 53.1335 23.6341 52.7083 23.6341H42.4361C42.5167 24.2897 42.557 24.959 42.557 25.642C42.557 26.5525 42.4809 27.4449 42.3376 28.3145H50.8016C50.909 28.0186 51.0791 27.7591 51.2939 27.5405C51.6878 27.1399 52.2249 26.894 52.8247 26.894C53.42 26.894 53.9616 27.1399 54.3555 27.5405C54.7494 27.9412 54.991 28.4875 54.991 29.0976C54.991 29.7031 54.7494 30.2541 54.3555 30.6547C53.9616 31.0554 53.4245 31.3012 52.8247 31.3012C52.2294 31.3012 51.6878 31.0554 51.2939 30.6547C51.0836 30.4407 50.909 30.1767 50.8016 29.8807H42.002C41.0083 33.5868 38.7524 36.7602 35.7267 38.8909V39.8698H40.3145C40.422 39.5602 40.5965 39.2825 40.8203 39.0548C41.2052 38.6542 41.7513 38.4083 42.3466 38.4083C42.9464 38.4083 43.4835 38.6542 43.8774 39.0548C44.2712 39.4555 44.5129 40.0064 44.5129 40.6119C44.5129 41.222 44.2712 41.7683 43.8774 42.169C43.4835 42.5697 42.9419 42.8155 42.3466 42.8155C41.7468 42.8155 41.2097 42.5697 40.8158 42.169C40.6144 41.9641 40.4488 41.7137 40.3369 41.4314H34.9524C34.5272 41.4314 34.1825 41.0809 34.1825 40.6483V39.8516C32.9203 40.5391 31.5507 41.0581 30.1139 41.3768V45.7294C30.4049 45.8386 30.6645 46.0162 30.8748 46.2302C31.2687 46.6308 31.5104 47.1818 31.5104 47.7873C31.5104 48.3974 31.2687 48.9437 30.8748 49.3444C30.481 49.745 29.9394 49.9909 29.3441 49.9909C28.7443 49.9909 28.2072 49.745 27.8133 49.3444C27.4194 48.9437 27.1777 48.3928 27.1777 47.7873C27.1777 47.1772 27.4194 46.6308 27.8133 46.2302C28.0282 46.0117 28.2833 45.8386 28.5742 45.7294V41.6409C27.9655 41.7137 27.3478 41.7501 26.7212 41.7501C25.7857 41.7501 24.8682 41.6682 23.9775 41.5088V47.6689C23.9775 48.1014 23.6328 48.452 23.2076 48.452H14.6318C14.5243 48.798 14.3408 49.1076 14.0946 49.3535C13.7008 49.7541 13.1592 50 12.5639 50C11.9641 50 11.427 49.7541 11.0331 49.3535C10.6392 48.9528 10.3975 48.4019 10.3975 47.7964C10.3975 47.1863 10.6392 46.64 11.0331 46.2393C11.427 45.8386 11.9686 45.5928 12.5639 45.5928C13.1637 45.5928 13.7008 45.8386 14.0946 46.2393C14.2782 46.426 14.4259 46.6445 14.5378 46.8858H22.4333V41.1537C20.9607 40.7348 19.5732 40.102 18.3065 39.2916C18.1677 39.419 17.9887 39.4964 17.7873 39.4964H13.1055C12.998 39.7833 12.828 40.0382 12.6176 40.2477C12.2237 40.6483 11.6821 40.8942 11.0868 40.8942C10.4915 40.8942 9.94995 40.6483 9.55607 40.2477C9.16219 39.8516 8.92049 39.3007 8.92049 38.6906C8.92049 38.0805 9.16219 37.5341 9.55607 37.1335C9.94995 36.7328 10.4915 36.487 11.0868 36.487C11.6821 36.487 12.2237 36.7328 12.6176 37.1335C12.8369 37.3566 13.0115 37.6298 13.1189 37.9302H16.4803C13.562 35.4125 11.5523 31.843 11.0197 27.7909H3.06152V35.8223C3.29875 35.9315 3.51807 36.0863 3.6971 36.273C4.09098 36.6736 4.33268 37.22 4.33268 37.8301C4.33268 38.4356 4.09098 38.9865 3.6971 39.3872C3.30322 39.7878 2.76611 40.0337 2.16634 40.0337C1.57105 40.0337 1.02946 39.7878 0.635579 39.3872C0.241699 38.9911 0 38.4402 0 37.8301C0 37.2245 0.241699 36.6736 0.635579 36.273C0.881755 36.0226 1.18612 35.8359 1.52181 35.7266V27.0124C1.52181 26.5799 1.86646 26.2293 2.29167 26.2293H10.8854C10.8765 26.0335 10.8765 25.8377 10.8765 25.642C10.8765 24.226 11.0555 22.8556 11.3912 21.5489H4.19393C4.08651 21.8448 3.91642 22.1044 3.70158 22.3229C3.3077 22.7235 2.77059 22.9694 2.17082 22.9694C1.57552 22.9694 1.03394 22.7235 0.640055 22.3229C0.246175 21.9222 0.00447591 21.3759 0.00447591 20.7658C0.00447591 20.1603 0.246175 19.6094 0.640055 19.2087C1.03394 18.808 1.57104 18.5622 2.17082 18.5622C2.76611 18.5622 3.3077 18.808 3.70158 19.2087C3.91195 19.4227 4.08651 19.6868 4.19393 19.9827H11.8791C12.9175 17.1645 14.7123 14.7241 17.0085 12.912V12.0743H13.1144C13.007 12.3748 12.8324 12.648 12.6131 12.8711C12.2192 13.2717 11.6777 13.5176 11.0824 13.5176C10.4871 13.5176 9.94548 13.2717 9.5516 12.8711C9.15772 12.4704 8.91602 11.9241 8.91602 11.314C8.91602 10.7039 9.15772 10.153 9.5516 9.75687C9.94548 9.35622 10.4871 9.11036 11.0824 9.11036C11.6777 9.11036 12.2192 9.35622 12.6131 9.75687C12.8235 9.97086 12.9891 10.2258 13.101 10.5081H17.7828C18.208 10.5081 18.5527 10.8587 18.5527 11.2912V11.8376C19.7522 11.1045 21.0547 10.5263 22.4288 10.1302V3.11419H14.5378C14.4303 3.35549 14.2782 3.57858 14.0946 3.7607C13.7008 4.16135 13.1637 4.40721 12.5639 4.40721C11.9686 4.40721 11.427 4.16135 11.0331 3.7607C10.6392 3.36004 10.3975 2.8137 10.3975 2.20361C10.3975 1.59807 10.6392 1.04717 11.0331 0.646512C11.427 0.245857 11.9641 0 12.5639 0C13.1592 0 13.7008 0.245857 14.0946 0.646512C14.3408 0.896922 14.5243 1.20652 14.6318 1.54799H23.2031C23.6283 1.54799 23.973 1.89856 23.973 2.33109V9.77053C24.8637 9.61118 25.7812 9.52923 26.7167 9.52923ZM20.343 24.0302H21.6097V23.8754V21.3121C21.6097 19.8461 22.2005 18.5167 23.1494 17.5514C24.0983 16.5862 25.4098 15.9852 26.851 15.9852C28.2922 15.9852 29.5992 16.5862 30.5481 17.5514C31.497 18.5167 32.0878 19.8507 32.0878 21.3121V23.8754V24.0302H33.0949C33.3187 24.0302 33.5022 24.2169 33.5022 24.4445V33.2134C33.5022 33.4411 33.3187 33.6278 33.0949 33.6278H20.343C20.1192 33.6278 19.9357 33.4411 19.9357 33.2134V24.4445C19.9357 24.2169 20.1192 24.0302 20.343 24.0302ZM23.6418 24.0302H30.0468V23.8754V21.2848C30.0468 20.3879 29.6842 19.5729 29.1069 18.9811C28.525 18.3892 27.7238 18.0249 26.8465 18.0249C25.9648 18.0249 25.1636 18.3937 24.5817 18.9811C23.9998 19.5729 23.6418 20.3879 23.6418 21.2848V23.8754V24.0302ZM26.8734 28.829L27.5179 31.8658L25.7454 31.8703L26.2646 28.7926C25.7813 28.6332 25.4277 28.1734 25.4277 27.627C25.4277 26.9532 25.9648 26.4068 26.6272 26.4068C27.2896 26.4068 27.8267 26.9532 27.8267 27.627C27.8357 28.2235 27.4194 28.7152 26.8734 28.829Z" fill="#F0F1F2"/>
</g>
<defs>
<clipPath id="clip0_117125_81">
<rect width="55" height="50" fill="white"/>
</clipPath>
</defs>
</svg>
