<?xml version="1.0" standalone="no"?>
<!DOCTYPE svg PUBLIC "-//W3C//DTD SVG 20010904//EN"
 "http://www.w3.org/TR/2001/REC-SVG-20010904/DTD/svg10.dtd">
<svg version="1.0" xmlns="http://www.w3.org/2000/svg"
 width="512.000000pt" height="512.000000pt" viewBox="0 0 512.000000 512.000000"
 preserveAspectRatio="xMidYMid meet">

<g transform="translate(0.000000,512.000000) scale(0.100000,-0.100000)"
fill="#038C73" stroke="none">
<path d="M2430 5051 c-47 -22 -485 -229 -975 -460 -989 -467 -952 -447 -975
-554 -8 -40 -10 -316 -8 -1019 4 -873 6 -972 22 -1058 52 -275 189 -538 368
-706 69 -65 1558 -1176 1617 -1206 52 -28 136 -21 191 16 53 35 1433 1061
1517 1128 221 175 378 451 439 768 16 87 18 178 22 1058 2 694 0 979 -8 1018
-15 71 -54 116 -139 159 -36 18 -473 225 -971 460 -1039 492 -958 462 -1100
396z m975 -779 l840 -398 3 -819 c2 -492 -1 -864 -7 -930 -16 -168 -49 -278
-124 -408 -75 -132 -133 -180 -811 -685 -353 -261 -665 -493 -693 -515 l-53
-39 -387 288 c-886 659 -1011 754 -1064 811 -135 142 -208 315 -229 538 -7 69
-10 418 -8 934 l3 825 840 397 c462 219 842 398 845 398 3 0 383 -179 845
-397z"/>
<path d="M1880 4040 c-371 -175 -688 -326 -703 -334 l-28 -16 3 -802 c3 -724
5 -809 21 -863 25 -88 80 -193 129 -248 49 -54 1247 -949 1264 -943 31 11
1169 865 1224 918 73 71 117 146 151 258 23 75 23 76 27 876 2 648 1 803 -10
811 -13 10 -1392 663 -1399 663 -2 -1 -308 -144 -679 -320z m876 -915 c228
-40 436 -147 635 -325 108 -96 149 -153 149 -204 0 -54 -28 -94 -138 -197
-248 -234 -530 -351 -842 -351 -323 0 -608 124 -868 376 -95 92 -112 118 -112
175 0 46 41 103 134 189 210 191 453 313 691 345 76 10 270 6 351 -8z"/>
<path d="M2464 2826 c-120 -52 -181 -193 -138 -318 47 -139 221 -205 351 -134
82 45 133 131 133 225 0 89 -71 191 -156 227 -42 18 -149 17 -190 0z"/>
</g>
</svg>
